<?xml version="1.0" encoding="UTF-8" standalone="no"?>
<!-- Created with Inkscape (http://www.inkscape.org/) -->

<svg
   width="184.33173mm"
   height="26.197226mm"
   viewBox="0 0 184.33173 26.197225"
   version="1.1"
   id="svg1"
   xmlns="http://www.w3.org/2000/svg"
   xmlns:svg="http://www.w3.org/2000/svg">
  <defs
     id="defs1" />
  <g
     id="layer1"
     transform="translate(-35.322102,-103.02279)">
    <g
       id="text1"
       style="font-size:25.4px;font-family:'Arial Rounded MT Bold';-inkscape-font-specification:'Arial Rounded MT Bold, ';stroke-width:1.065;stroke-dasharray:1.065, 3.195"
       aria-label="Cloud &amp; Code">
      <path
         d="m 83.190501,119.47003 q 0,0.86817 -0.434082,1.88516 -0.42168,1.00459 -1.339453,1.98437 -0.917773,0.96739 -2.344043,1.5751 -1.426269,0.60772 -3.323828,0.60772 -1.438672,0 -2.616894,-0.27285 -1.178223,-0.27286 -2.145606,-0.84336 -0.95498,-0.58291 -1.761133,-1.52549 -0.719336,-0.85576 -1.227832,-1.90996 -0.508496,-1.0666 -0.768945,-2.26963 -0.248047,-1.20303 -0.248047,-2.55488 0,-2.19522 0.63252,-3.93155 0.644921,-1.73633 1.835546,-2.96416 1.190625,-1.24023 2.790528,-1.88515 1.599902,-0.64493 3.410644,-0.64493 2.207617,0 3.931543,0.88057 1.723926,0.88057 2.641699,2.18281 0.917774,1.28985 0.917774,2.44326 0,0.63252 -0.446485,1.11622 -0.446484,0.48369 -1.079003,0.48369 -0.706934,0 -1.066602,-0.33487 -0.347266,-0.33486 -0.781348,-1.15341 -0.719336,-1.35186 -1.699121,-2.02159 -0.967383,-0.66972 -2.393652,-0.66972 -2.269629,0 -3.621484,1.72392 -1.339453,1.72393 -1.339453,4.89893 0,2.1208 0.595312,3.53467 0.595312,1.40146 1.686719,2.09599 1.091406,0.69453 2.554883,0.69453 1.587499,0 2.678906,-0.78134 1.103808,-0.79375 1.661914,-2.31924 0.235644,-0.71934 0.58291,-1.16582 0.347266,-0.45889 1.116211,-0.45889 0.657324,0 1.128613,0.45889 0.471289,0.45888 0.471289,1.14101 z m 3.075781,3.99356 v -14.68438 q 0,-1.01699 0.446484,-1.53789 0.458887,-0.5209 1.227832,-0.5209 0.768946,0 1.240235,0.5209 0.471289,0.5085 0.471289,1.53789 v 14.68438 q 0,1.02939 -0.483692,1.55029 -0.471289,0.5085 -1.227832,0.5085 -0.74414,0 -1.215429,-0.5333 -0.458887,-0.5333 -0.458887,-1.52549 z m 19.558498,-4.82451 q 0,1.51308 -0.47129,2.79052 -0.47129,1.27745 -1.36426,2.19522 -0.89297,0.91777 -2.1332,1.41387 -1.24024,0.48369 -2.790529,0.48369 -1.537891,0 -2.765723,-0.4961 -1.227832,-0.49609 -2.133203,-1.41386 -0.892969,-0.93018 -1.364258,-2.18282 -0.458887,-1.26504 -0.458887,-2.79052 0,-1.53789 0.471289,-2.81534 0.471289,-1.27744 1.351856,-2.18281 0.880566,-0.90537 2.133203,-1.38906 1.252637,-0.49609 2.765723,-0.49609 1.537889,0 2.790529,0.49609 1.25263,0.49609 2.1456,1.41387 0.89297,0.91777 1.35186,2.18281 0.47129,1.26504 0.47129,2.79053 z m -3.39824,0 q 0,-2.0712 -0.91778,-3.22461 -0.90537,-1.15342 -2.443259,-1.15342 -0.992188,0 -1.748731,0.5209 -0.756543,0.50849 -1.16582,1.51308 -0.409278,1.00459 -0.409278,2.34405 0,1.32705 0.396875,2.31923 0.409278,0.99219 1.153418,1.52549 0.756543,0.5209 1.773536,0.5209 1.537889,0 2.443259,-1.15342 0.91778,-1.16582 0.91778,-3.2122 z m 14.858,4.97334 v -0.43409 q -0.60771,0.76895 -1.27744,1.28985 -0.66973,0.5209 -1.46348,0.76894 -0.79375,0.26045 -1.81074,0.26045 -1.22783,0 -2.20762,-0.50849 -0.96738,-0.5085 -1.50068,-1.40147 -0.63252,-1.079 -0.63252,-3.10058 v -6.70967 q 0,-1.01699 0.45889,-1.51309 0.45889,-0.50849 1.21543,-0.50849 0.76894,0 1.24023,0.50849 0.47129,0.5085 0.47129,1.51309 v 5.41982 q 0,1.17822 0.19844,1.98438 0.19844,0.79375 0.70693,1.25263 0.5209,0.44649 1.40147,0.44649 0.85576,0 1.6123,-0.5085 0.75654,-0.50849 1.10381,-1.32705 0.28525,-0.71933 0.28525,-3.15019 v -4.11758 q 0,-1.00459 0.47129,-1.51309 0.47129,-0.50849 1.22784,-0.50849 0.75654,0 1.21543,0.50849 0.45888,0.4961 0.45888,1.51309 v 9.81025 q 0,0.96738 -0.44648,1.45108 -0.43408,0.48369 -1.12862,0.48369 -0.69453,0 -1.15341,-0.4961 -0.44649,-0.50849 -0.44649,-1.41386 z m 15.82539,-0.0248 v -0.33486 q -0.68212,0.78135 -1.35185,1.27744 -0.65732,0.48369 -1.43867,0.73174 -0.76895,0.26045 -1.68672,0.26045 -1.21543,0 -2.25723,-0.5085 -1.02939,-0.5209 -1.78594,-1.47588 -0.75654,-0.95498 -1.15341,-2.24482 -0.38448,-1.28985 -0.38448,-2.79053 0,-3.175 1.5503,-4.94853 1.55029,-1.77354 4.08037,-1.77354 1.46347,0 2.46806,0.5085 1.00459,0.49609 1.95957,1.53789 v -4.99815 q 0,-1.04179 0.40928,-1.5751 0.42168,-0.5333 1.19063,-0.5333 0.76894,0 1.17822,0.4961 0.42168,0.48369 0.42168,1.43867 v 14.93242 q 0,0.96738 -0.44648,1.45108 -0.44649,0.48369 -1.15342,0.48369 -0.69453,0 -1.15342,-0.4961 -0.44649,-0.50849 -0.44649,-1.43867 z m -6.66005,-4.97334 q 0,1.37666 0.42168,2.34404 0.43408,0.96739 1.17822,1.46348 0.74414,0.48369 1.62471,0.48369 0.89296,0 1.6247,-0.45888 0.74414,-0.47129 1.17823,-1.42627 0.44648,-0.96739 0.44648,-2.40606 0,-1.35185 -0.44648,-2.31924 -0.43409,-0.97978 -1.19063,-1.48828 -0.74414,-0.5209 -1.63711,-0.5209 -0.93017,0 -1.66191,0.5333 -0.73174,0.5209 -1.14102,1.51309 -0.39687,0.97979 -0.39687,2.28203 z"
         id="path1" />
      <path
         style="font-family:Titillium;-inkscape-font-specification:Titillium"
         d="m 152.28485,107.40692 c -2.8194,0 -4.4196,1.4986 -4.4196,3.7338 0,1.4732 0.1778,2.3368 1.4478,3.7846 -2.667,0.8636 -3.937,2.1082 -3.937,5.1308 0,3.3528 1.4986,5.4102 6.2484,5.4102 2.413,0 4.2926,-0.9652 5.461,-2.8956 l 3.0734,2.8702 1.143,-1.27 -3.2766,-3.0988 c 0.4826,-1.1938 0.9906,-3.5052 1.1684,-5.2832 l -1.8542,-0.0254 c -0.0762,1.2192 -0.4318,3.302 -0.7112,4.1148 l -3.8608,-3.81 c 2.7432,-1.27 3.9116,-2.3876 3.9116,-4.8006 0,-2.3622 -1.4224,-3.8608 -4.3942,-3.8608 z m -0.8128,16.3322 c -2.9972,0 -4.1656,-1.3208 -4.1656,-3.81 0,-2.159 0.889,-3.1242 3.0988,-3.81 l 5.3594,5.334 c -0.8128,1.5748 -2.3876,2.286 -4.2926,2.286 z m -1.7018,-12.2936 c 0,-1.6256 0.9144,-2.3876 2.5146,-2.3876 1.7526,0 2.4892,0.8128 2.4892,2.3368 0,1.8034 -0.889,2.5654 -3.1242,3.5306 l -0.7366,-0.7112 c -0.889,-0.9398 -1.143,-1.8288 -1.143,-2.7686 z m 30.30218,11.811 c -1.2192,0.2286 -3.0988,0.4572 -4.5212,0.4572 -4.0132,0 -4.6482,-2.3368 -4.6482,-7.239 0,-5.0038 0.6858,-7.3406 4.5974,-7.3406 1.3716,0 3.429,0.254 4.572,0.4572 l 0.0762,-1.651 c -1.1176,-0.2286 -3.048,-0.5588 -4.8514,-0.5588 -5.2832,0 -6.4262,3.1496 -6.4262,9.0932 0,5.7912 1.1684,8.9916 6.4262,8.9916 1.6764,0 3.6068,-0.2794 4.8514,-0.5334 z m 7.56921,-10.9982 c -4.0132,0 -5.4356,2.0828 -5.4356,6.4516 0,4.6228 1.1684,6.7564 5.4356,6.7564 4.29259,0 5.43559,-2.1336 5.43559,-6.7564 0,-4.3688 -1.397,-6.4516 -5.43559,-6.4516 z m 0,11.557 c -2.9972,0 -3.4798,-1.4986 -3.4798,-5.1054 0,-3.5306 0.7874,-4.8006 3.4798,-4.8006 2.7178,0 3.4798,1.27 3.4798,4.8006 0,3.6068 -0.4572,5.1054 -3.4798,5.1054 z m 18.288,-16.8402 h -1.8796 v 5.6134 c -0.381,-0.0762 -2.032,-0.3302 -3.1242,-0.3302 -3.8608,0 -5.3086,2.2352 -5.3086,6.7056 0,5.4864 2.0828,6.5024 4.572,6.5024 1.905,0 3.8608,-1.1176 3.8608,-1.1176 v 0.8636 h 1.8796 z m -5.5118,16.7894 c -1.4986,0 -2.8448,-0.6858 -2.8448,-4.8006 0,-3.302 0.7874,-5.0546 3.4544,-5.0546 1.0414,0 2.6162,0.2286 3.0226,0.3048 v 8.6106 c 0,0 -1.8288,0.9398 -3.6322,0.9398 z m 13.89378,0.0254 c -2.4892,0 -3.3274,-1.4224 -3.3274,-4.1402 h 8.382 l 0.1016,-1.4478 c 0,-4.1656 -1.7272,-5.9436 -5.1054,-5.9436 -3.2258,0 -5.3086,1.8542 -5.3086,6.6802 0,4.318 1.2446,6.5278 5.0292,6.5278 2.0574,0 4.953,-0.4064 4.953,-0.4064 l -0.0508,-1.4986 c 0,0 -2.7686,0.2286 -4.6736,0.2286 z m -3.3528,-5.6642 c 0.0254,-3.0734 1.2446,-4.2672 3.4036,-4.2672 2.2352,0 3.2004,1.1176 3.2004,4.2672 z"
         id="path2" />
    </g>
    <rect
       style="fill:#000000;stroke-width:0.967194;stroke-dasharray:0.967194, 2.90158"
       id="rect3"
       width="26.197226"
       height="26.197226"
       x="35.322102"
       y="103.02279" />
  </g>
</svg>
